<?xml version="1.0" encoding="UTF-8"?>
<!-- Generator: visioncortex VTracer 0.6.4 -->
<svg version="1.1" xmlns="http://www.w3.org/2000/svg" width="500" height="500">
<path d="M0 0 C11.88 -0.05 23.77 -0.08 35.65 -0.1 C41.17 -0.11 46.69 -0.13 52.21 -0.15 C57.55 -0.17 62.88 -0.18 68.22 -0.19 C70.24 -0.19 72.27 -0.2 74.3 -0.21 C90.17 -0.29 104.4 -0.03 119 7 C119.69 7.33 120.37 7.65 121.08 7.99 C122.4 8.64 123.7 9.31 125 10 C125 10.66 125 11.32 125 12 C126.08 12.34 126.08 12.34 127.19 12.69 C130.64 14.3 132.43 16.18 135 19 C135.52 19.51 136.05 20.02 136.59 20.54 C145.22 29.41 153 44.47 153 57 C148.12 58 148.12 58 147 58 C147.53 58.66 148.06 59.33 148.61 60.01 C150.74 62.67 152.87 65.34 155 68 C155.75 68.89 156.5 69.79 157.27 70.71 C159 73 159 73 159 75 C159.66 75 160.32 75 161 75 C164 78.46 164 78.46 164 81 C164.66 81 165.32 81 166 81 C166.43 81.96 166.43 81.96 166.88 82.94 C167.83 85.15 167.83 85.15 170 86 C170 86.66 170 87.32 170 88 C170.66 88 171.32 88 172 88 C172 88.66 172 89.32 172 90 C172.66 90 173.32 90 174 90 C174 90.66 174 91.32 174 92 C174.54 92.27 175.07 92.54 175.62 92.81 C177.38 93.69 179.11 94.64 180.81 95.62 C185.58 97.68 190.08 97.58 195 96 C193.66 99.06 192.23 100.97 189.69 103.12 C189.11 103.62 188.54 104.12 187.95 104.63 C181.33 109.28 172.77 109.19 165 108 C160.69 106.44 156.87 104.46 153 102 C153 101.34 153 100.68 153 100 C151.07 100.07 151.07 100.07 149 101 C147.42 103.53 147.42 103.53 146.25 106.56 C145.82 107.57 145.39 108.59 144.95 109.63 C144.64 110.41 144.32 111.19 144 112 C146.31 112.99 148.62 113.98 151 115 C151 115.66 151 116.32 151 117 C150.2 117.06 149.41 117.13 148.59 117.19 C141.03 117.98 141.03 117.98 135.38 122.62 C134.74 123.57 134.74 123.57 134.09 124.54 C133.73 125.02 133.37 125.5 133 126 C132.34 126 131.68 126 131 126 C131 126.66 131 127.32 131 128 C115.43 140.56 96.99 143.53 77.54 143.29 C76.12 143.29 74.71 143.28 73.29 143.28 C69.63 143.27 65.97 143.24 62.3 143.21 C58.54 143.17 54.78 143.16 51.02 143.15 C43.68 143.12 36.34 143.06 29 143 C28.67 134.09 28.34 125.18 28 116 C26.35 116.99 24.7 117.98 23 119 C20.35 119.86 17.73 120.4 15 121 C15 118 15 118 16.64 116.32 C17.36 115.74 18.08 115.16 18.81 114.56 C21.07 112.72 22.9 111.13 24.64 108.78 C25.09 108.19 25.54 107.6 26 107 C26.66 107 27.32 107 28 107 C28.03 105.94 28.05 104.89 28.08 103.8 C28.17 99.9 28.27 96 28.37 92.1 C28.42 90.41 28.46 88.72 28.5 87.03 C28.55 84.6 28.62 82.18 28.68 79.75 C28.7 78.99 28.72 78.23 28.73 77.45 C28.89 72.11 28.89 72.11 30 71 C34.98 70.69 39.25 71.37 44.08 72.56 C46 73.07 46 73.07 48 73 C49.55 71.55 51.04 70.04 52.5 68.5 C53.96 66.96 55.45 65.45 57 64 C57.66 64 58.32 64 59 64 C59 63.34 59 62.68 59 62 C60.39 61.2 61.79 60.41 63.19 59.62 C63.96 59.18 64.74 58.74 65.54 58.29 C73.85 53.93 83.61 53.57 92.76 55.62 C95.05 56.55 96.95 57.62 99 59 C99.81 59.54 100.61 60.07 101.44 60.62 C108.43 65.75 113.12 71.93 118 79 C118.11 76.12 118.19 73.25 118.25 70.38 C118.28 69.57 118.32 68.76 118.35 67.93 C118.44 62.43 117.72 59.31 114 55 C112.07 53.33 112.07 53.33 110 52.19 C109.34 51.79 108.68 51.39 108 50.98 C103.87 48.96 99.81 48.76 95.25 48.44 C94.08 48.35 92.91 48.27 91.7 48.18 C90.37 48.09 90.37 48.09 89 48 C95.99 40.54 105.27 38.99 115 37 C102.69 33.3 90.77 31.72 77.94 31.73 C75.49 31.71 73.04 31.69 70.59 31.66 C66.79 31.64 62.99 31.62 59.19 31.62 C55.48 31.61 51.77 31.58 48.06 31.54 C46.95 31.54 45.83 31.55 44.68 31.55 C31.2 31.39 20.28 27.42 10.23 18.41 C9 17 9 17 9 15 C8.34 15 7.68 15 7 15 C5.53 12.99 5.53 12.99 3.94 10.31 C3.41 9.44 2.88 8.57 2.34 7.68 C1.03 5.05 0.51 2.87 0 0 Z M142 52 C142.33 52.99 142.66 53.98 143 55 C143.66 54.67 144.32 54.34 145 54 C144.01 53.34 143.02 52.68 142 52 Z M65 78 C64.33 78.46 63.65 78.91 62.96 79.38 C61.28 80.55 59.64 81.77 58 83 C58.28 83.5 58.55 84 58.84 84.52 C63.04 93.3 62.8 102.45 63 112 C86.82 112.74 86.82 112.74 108 103 C108 102.34 108 101.68 108 101 C108.66 101 109.32 101 110 101 C110 100.34 110 99.68 110 99 C110.66 99 111.32 99 112 99 C110.6 96.01 108.97 93.4 107 90.75 C106.23 89.69 106.23 89.69 105.44 88.61 C104.96 88.08 104.49 87.55 104 87 C103.34 87 102.68 87 102 87 C101.81 86.44 101.63 85.89 101.44 85.31 C99.36 81.97 96.39 79.95 93 78 C92.34 78 91.68 78 91 78 C91 77.34 91 76.68 91 76 C82.45 72.03 72.75 72.71 65 78 Z " fill="#F3F3F3" transform="translate(166,124)"/>
<path d="M0 0 C11.88 -0.05 23.77 -0.08 35.65 -0.1 C41.17 -0.11 46.69 -0.13 52.21 -0.15 C57.55 -0.17 62.88 -0.18 68.22 -0.19 C70.24 -0.19 72.27 -0.2 74.3 -0.21 C90.17 -0.29 104.4 -0.03 119 7 C119.69 7.33 120.37 7.65 121.08 7.99 C122.4 8.64 123.7 9.31 125 10 C125 10.66 125 11.32 125 12 C126.08 12.34 126.08 12.34 127.19 12.69 C130.64 14.3 132.43 16.18 135 19 C135.52 19.51 136.05 20.02 136.59 20.54 C145.22 29.41 153 44.47 153 57 C150.52 57.5 150.52 57.5 148 58 C148 57.01 148 56.02 148 55 C146.63 50.75 143.61 49.36 140 47 C140 46.34 140 45.68 140 45 C139.36 44.75 138.72 44.5 138.06 44.25 C134.69 42.87 131.39 41.35 128.09 39.8 C124.96 38.6 123.16 38.95 120 40 C120 39.34 120 38.68 120 38 C117.61 37.37 115.21 36.74 112.81 36.12 C112.16 35.95 111.5 35.78 110.83 35.6 C99.93 32.81 89.17 31.72 77.94 31.73 C75.49 31.71 73.04 31.69 70.59 31.66 C66.79 31.64 62.99 31.62 59.19 31.62 C55.48 31.61 51.77 31.58 48.06 31.54 C46.95 31.54 45.83 31.55 44.68 31.55 C31.2 31.39 20.28 27.42 10.23 18.41 C9 17 9 17 9 15 C8.34 15 7.68 15 7 15 C5.53 12.99 5.53 12.99 3.94 10.31 C3.41 9.44 2.88 8.57 2.34 7.68 C1.03 5.05 0.51 2.87 0 0 Z " fill="#A6A5A6" transform="translate(166,124)"/>
<path d="M0 0 C1.96 0.84 1.96 0.84 3.7 4.28 C5.3 9.14 5.3 13.77 5.15 18.84 C5.12 20.15 5.12 20.15 5.1 21.48 C5.07 23.6 5.02 25.72 4.96 27.84 C24.97 27.46 24.97 27.46 43.96 21.84 C44.95 21.84 45.94 21.84 46.96 21.84 C46.3 22.5 45.64 23.16 44.96 23.84 C45.62 24.17 46.28 24.5 46.96 24.84 C46.96 24.18 46.96 23.52 46.96 22.84 C48.6 21.33 48.6 21.33 50.77 19.72 C51.48 19.18 52.19 18.64 52.91 18.08 C54.96 16.84 54.96 16.84 57.96 16.84 C60.15 18.77 60.15 18.77 62.52 21.28 C65.43 24.48 65.43 24.48 68.96 26.84 C68.96 27.5 68.96 28.16 68.96 28.84 C73.93 30.6 78.7 32.17 83.96 32.84 C82.29 34.51 80.62 36.17 78.96 37.84 C78.24 38.6 77.51 39.37 76.77 40.15 C74.96 41.84 74.96 41.84 72.96 41.84 C72.96 42.5 72.96 43.16 72.96 43.84 C57.38 56.4 38.95 59.37 19.49 59.13 C18.08 59.13 16.67 59.12 15.25 59.12 C11.59 59.11 7.92 59.08 4.26 59.05 C0.5 59.02 -3.26 59 -7.02 58.99 C-14.36 58.96 -21.7 58.9 -29.04 58.84 C-29.37 49.27 -29.7 39.7 -30.04 29.84 C-29.38 29.84 -28.72 29.84 -28.04 29.84 C-28.04 39.08 -28.04 48.32 -28.04 57.84 C-27.05 57.84 -26.06 57.84 -25.04 57.84 C-25.08 56.91 -25.12 55.97 -25.15 55.01 C-25.27 51.53 -25.36 48.04 -25.43 44.55 C-25.46 43.05 -25.51 41.54 -25.57 40.04 C-26.06 27.56 -26.06 27.56 -23.65 23.5 C-21.88 21.77 -20.02 20.33 -18.04 18.84 C-17.03 17.68 -16.06 16.49 -15.13 15.27 C-14.68 14.68 -14.23 14.1 -13.76 13.49 C-13.32 12.91 -12.87 12.32 -12.42 11.72 C-3.33 -0.26 -3.33 -0.26 0 0 Z " fill="#A6A6A6" transform="translate(224.042236328125,208.15966796875)"/>
<path d="M0 0 C6.63 0.86 13.57 4.15 19 8 C19 8.66 19 9.32 19 10 C19.58 10.27 20.15 10.54 20.75 10.81 C26.63 13.91 26.63 13.91 27.75 17.19 C27.83 17.79 27.92 18.38 28 19 C27.01 19.33 26.02 19.66 25 20 C25.6 20.74 26.21 21.47 26.83 22.23 C28.03 23.69 28.03 23.69 29.25 25.19 C30.04 26.15 30.83 27.11 31.64 28.11 C32.42 29.06 33.2 30.02 34 31 C34.76 31.9 35.52 32.81 36.3 33.74 C38 36 38 36 38 38 C38.66 38 39.32 38 40 38 C43 41.46 43 41.46 43 44 C43.66 44 44.32 44 45 44 C45.29 44.64 45.58 45.28 45.88 45.94 C46.83 48.15 46.83 48.15 49 49 C49 49.66 49 50.32 49 51 C49.66 51 50.32 51 51 51 C51 51.66 51 52.32 51 53 C51.66 53 52.32 53 53 53 C53 53.66 53 54.32 53 55 C53.54 55.27 54.07 55.54 54.62 55.81 C56.38 56.69 58.11 57.64 59.81 58.62 C64.58 60.68 69.08 60.58 74 59 C72.66 62.06 71.23 63.97 68.69 66.12 C68.11 66.62 67.54 67.12 66.95 67.63 C60.33 72.28 51.77 72.19 44 71 C39.69 69.44 35.87 67.46 32 65 C32 64.34 32 63.68 32 63 C30.68 63 29.36 63 28 63 C27.81 62.34 27.63 61.68 27.44 61 C26.12 58.25 25.03 56.82 23 54.62 C19.02 50.25 15.87 45.46 12.65 40.52 C9.6 35.87 6.41 31.4 3 27 C2.67 32.94 2.34 38.88 2 45 C1.01 45 0.02 45 -1 45 C-1.01 43.72 -1.03 42.44 -1.04 41.12 C-1.09 39.42 -1.14 37.71 -1.19 36 C-1.19 35.16 -1.2 34.32 -1.21 33.46 C-1.43 27.14 -2.95 22.89 -7 18 C-8.97 16.14 -8.97 16.14 -11.06 15.06 C-11.71 14.68 -12.36 14.3 -13.04 13.91 C-17.18 11.99 -21.22 11.75 -25.75 11.44 C-26.92 11.35 -28.09 11.27 -29.3 11.18 C-30.63 11.09 -30.63 11.09 -32 11 C-26.08 4.63 -17.23 1.3 -8.57 0.88 C-6.38 0.88 -4.19 0.92 -2 1 C-1.34 1 -0.68 1 0 1 C0 0.67 0 0.34 0 0 Z M21 15 C21.33 15.99 21.66 16.98 22 18 C22.66 17.67 23.32 17.34 24 17 C23.01 16.34 22.02 15.68 21 15 Z " fill="#F5F5F5" transform="translate(287,161)"/>
<path d="M0 0 C3.08 2.98 5.79 5.88 8.19 9.44 C8.78 10.29 9.36 11.15 9.97 12.04 C10.64 13.01 11.31 13.99 12 15 C13.72 17.47 15.45 19.92 17.19 22.38 C17.6 22.97 18.02 23.56 18.45 24.18 C20.26 26.73 22.02 29.02 24.3 31.18 C26 33 26 33 26.06 36.69 C25.18 41.67 22.66 45.76 20 50 C15.32 48.61 13.49 46.5 10.69 42.56 C9.92 41.49 9.15 40.41 8.36 39.31 C7.97 38.76 7.59 38.21 7.19 37.64 C6.04 36.05 4.82 34.51 3.61 32.97 C2.87 32.03 2.13 31.09 1.38 30.12 C0.7 29.28 0.03 28.44 -0.66 27.57 C-2.43 24.17 -1.84 22.71 -1 19 C-0.72 15.71 -0.59 12.42 -0.44 9.12 C-0.39 8.25 -0.35 7.37 -0.31 6.46 C-0.2 4.31 -0.1 2.15 0 0 Z " fill="#A8A8A8" transform="translate(289,187)"/>
<path d="M0 0 C4 4.68 4 4.68 4 7 C0.75 7.28 -0.73 7.17 -3.56 5.44 C-5.84 3.81 -5.84 3.81 -8.19 4 C-10.22 4.92 -10.22 4.92 -11.38 7.31 C-12.26 9.97 -12.26 9.97 -11.12 12.31 C-10.57 13.15 -10.57 13.15 -10 14 C-7.69 14 -5.38 14 -3 14 C-4.65 13.67 -6.3 13.34 -8 13 C-8 11.68 -8 10.36 -8 9 C-4.04 9 -0.08 9 4 9 C3.73 12.93 3.48 14.55 0.56 17.31 C-3.27 19.84 -5.36 20.54 -10 20 C-14.33 17.67 -14.33 17.67 -16 15 C-16.74 11.21 -16.7 7.79 -16 4 C-12.08 -1.67 -6.21 -1.87 0 0 Z " fill="#C1C1C1" transform="translate(271,296)"/>
<path d="M0 0 C5.49 0.05 8.37 1.37 12.25 5.25 C12.82 8.63 12.79 11.86 12.25 15.25 C10.06 18.07 8.42 19.67 5.25 21.25 C3.56 21.35 1.88 21.38 0.19 21.38 C-1.16 21.38 -1.16 21.38 -2.54 21.38 C-4.75 21.25 -4.75 21.25 -5.75 20.25 C-5.85 18.85 -5.88 17.44 -5.88 16.03 C-5.88 15.18 -5.89 14.33 -5.89 13.46 C-5.88 12.56 -5.88 11.67 -5.88 10.75 C-5.88 9.86 -5.88 8.96 -5.89 8.04 C-5.89 7.19 -5.88 6.34 -5.88 5.47 C-5.88 4.68 -5.88 3.9 -5.88 3.09 C-5.62 -0.63 -3.2 0.06 0 0 Z M-0.75 4.25 C-0.75 8.21 -0.75 12.17 -0.75 16.25 C4.74 16.73 4.74 16.73 7.19 15.19 C8.94 12 8.18 9.65 7.25 6.25 C4.43 4.01 2.97 4.25 -0.75 4.25 Z " fill="#CAC9C9" transform="translate(288.75,294.75)"/>
<path d="M0 0 C2.99 2.01 4.63 3.34 5.44 6.93 C5.67 10.72 5.24 12.62 3.19 15.88 C0.24 18.73 -1.28 19.95 -5.44 20.25 C-8.66 20.02 -10.33 19.71 -13 18 C-13 17.34 -13 16.68 -13 16 C-13.66 16 -14.32 16 -15 16 C-16.73 12.54 -16.48 8.78 -16 5 C-12 -1.63 -7 -1.75 0 0 Z M-12 7 C-11.55 11.48 -11.55 11.48 -9 15 C-5.42 15.17 -5.42 15.17 -2 15 C-2 14.34 -2 13.68 -2 13 C-1.34 13 -0.68 13 0 13 C0.42 9.63 0.42 9.63 0 6 C-5.26 1.71 -7.15 2.92 -12 7 Z " fill="#C9C9C9" transform="translate(354,296)"/>
<path d="M0 0 C2.76 0.27 3.81 0.79 5.7 2.85 C6.21 3.58 6.72 4.31 7.25 5.06 C7.77 5.8 8.29 6.53 8.83 7.29 C9.21 7.85 9.6 8.42 10 9 C10.33 6.03 10.66 3.06 11 0 C12.32 0 13.64 0 15 0 C15 6.93 15 13.86 15 21 C13.68 20.67 12.36 20.34 11 20 C9.75 17.44 9.75 17.44 9 15 C8.34 15 7.68 15 7 15 C6.34 13.68 5.68 12.36 5 11 C4.67 14.3 4.34 17.6 4 21 C2.68 21 1.36 21 0 21 C-1.14 18.72 -1.13 17.43 -1.13 14.9 C-1.13 14.1 -1.14 13.3 -1.14 12.47 C-1.13 11.64 -1.13 10.8 -1.12 9.94 C-1.13 9.1 -1.13 8.26 -1.14 7.39 C-1.13 1.13 -1.13 1.13 0 0 Z " fill="#D5D5D5" transform="translate(155,295)"/>
<path d="M0 0 C1.65 0 3.3 0 5 0 C5.23 0.65 5.46 1.3 5.7 1.98 C7.8 7.6 10 11.55 14 16 C14 16.66 14 17.32 14 18 C14.66 18 15.32 18 16 18 C16 18.66 16 19.32 16 20 C16.56 20.27 17.11 20.54 17.69 20.81 C20 22 20 22 22.19 23.44 C29.49 27.5 36.46 28.46 44.72 28.51 C45.71 28.53 46.69 28.55 47.71 28.57 C50.83 28.62 53.95 28.65 57.06 28.69 C59.19 28.72 61.32 28.76 63.44 28.79 C68.63 28.88 73.81 28.94 79 29 C78.67 29.66 78.34 30.32 78 31 C72.11 31.1 66.23 31.17 60.34 31.22 C58.35 31.24 56.35 31.27 54.35 31.3 C37.07 31.6 23.68 30.47 10.23 18.41 C9 17 9 17 9 15 C8.34 15 7.68 15 7 15 C5.53 12.99 5.53 12.99 3.94 10.31 C3.41 9.44 2.88 8.57 2.34 7.68 C1.03 5.07 0.42 2.87 0 0 Z " fill="#AEAEAE" transform="translate(166,124)"/>
<path d="M0 0 C10 0 10 0 14 3 C14.46 4.94 14.46 4.94 14.38 7 C14.36 7.68 14.35 8.36 14.34 9.06 C14 11 14 11 12 14 C12.5 14.6 12.99 15.2 13.5 15.81 C15 18 15 18 15 21 C12.62 20.75 12.62 20.75 10 20 C8.69 17.94 8.69 17.94 8 16 C7.34 16 6.68 16 6 16 C5.67 15.34 5.34 14.68 5 14 C4.67 16.31 4.34 18.62 4 21 C2.68 21 1.36 21 0 21 C0 14.07 0 7.14 0 0 Z M4 4 C4 5.65 4 7.3 4 9 C5.98 9 7.96 9 10 9 C9.67 7.68 9.34 6.36 9 5 C7.35 4.67 5.7 4.34 4 4 Z " fill="#C7C7C7" transform="translate(361,295)"/>
<path d="M0 0 C4.4 1.1 4.8 1.55 7.25 5.06 C7.77 5.8 8.29 6.53 8.83 7.29 C9.21 7.85 9.6 8.42 10 9 C10.33 6.03 10.66 3.06 11 0 C12.32 0 13.64 0 15 0 C15 6.93 15 13.86 15 21 C10.41 19.85 10.12 19.26 7.75 15.44 C6.97 14.2 6.97 14.2 6.17 12.93 C5.79 12.3 5.4 11.66 5 11 C4.67 14.3 4.34 17.6 4 21 C2.68 21 1.36 21 0 21 C0 14.07 0 7.14 0 0 Z " fill="#AEAEAE" transform="translate(237,295)"/>
<path d="M0 0 C0.88 0.16 1.76 0.32 2.66 0.48 C4.94 1.25 4.94 1.25 6.94 4.25 C4.63 7.92 2.32 11.59 0 15.25 C-0.99 16.82 -0.99 16.82 -2 18.43 C-2.63 19.42 -3.25 20.41 -3.9 21.44 C-4.77 22.82 -4.77 22.82 -5.66 24.23 C-6.13 24.9 -6.59 25.56 -7.06 26.25 C-7.39 26.25 -7.72 26.25 -8.06 26.25 C-8.06 17.67 -8.06 9.09 -8.06 0.25 C-4.76 -0.85 -3.35 -0.65 0 0 Z " fill="#A6A6A6" transform="translate(207.0625,195.75)"/>
<path d="M0 0 C2.62 1.69 2.91 2.65 3.69 5.69 C3.79 6.45 3.89 7.21 4 8 C1.56 7.62 1.56 7.62 -1 7 C-1.33 6.34 -1.66 5.68 -2 5 C-4.32 3.99 -4.32 3.99 -7 4 C-9.5 5.5 -9.5 5.5 -11 8 C-10.86 10.71 -10.86 10.71 -10 13 C-5.52 13.72 -5.52 13.72 -1 14 C-0.67 13.01 -0.34 12.02 0 11 C1.32 11 2.64 11 4 11 C3.67 12.65 3.34 14.3 3 16 C2.34 16 1.68 16 1 16 C1 16.66 1 17.32 1 18 C-1.68 19.82 -3.14 20 -6.44 19.94 C-10.65 18.83 -12.25 17.31 -15 14 C-16.45 11.1 -16.37 9.23 -16 6 C-11.91 -0.83 -7.29 -1.7 0 0 Z " fill="#CCCCCC" transform="translate(333,296)"/>
<path d="M0 0 C0.66 1.65 1.32 3.3 2 5 C-0.02 4.67 -2.04 4.35 -4.05 4.02 C-4.7 4.02 -5.34 4.01 -6 4 C-6.66 4.66 -7.32 5.32 -8 6 C-7.36 6.2 -6.72 6.41 -6.07 6.62 C-5.24 6.89 -4.41 7.16 -3.56 7.44 C-2.74 7.7 -1.92 7.97 -1.07 8.25 C1 9 1 9 2 10 C2.38 12.81 2.38 12.81 2 16 C-0.06 18.44 -0.06 18.44 -3 20 C-6.61 19.94 -8.97 19.73 -11.94 17.62 C-13 16 -13 16 -13 13 C-12.28 13.14 -11.56 13.29 -10.81 13.44 C-9.42 13.72 -9.42 13.72 -8 14 C-6.33 14.33 -4.67 14.67 -3 15 C-3 14.01 -3 13.02 -3 12 C-3.93 11.86 -4.86 11.71 -5.81 11.56 C-9 11 -9 11 -12 10 C-13.25 3.38 -13.25 3.38 -11 0 C-6.95 -1.35 -4.21 -0.62 0 0 Z " fill="#C1C1C1" transform="translate(200,296)"/>
<path d="M0 0 C3.96 0 7.92 0 12 0 C12 1.32 12 2.64 12 4 C9.36 4 6.72 4 4 4 C4 5.32 4 6.64 4 8 C6.64 8 9.28 8 12 8 C12 9.32 12 10.64 12 12 C9.36 12 6.72 12 4 12 C4 13.32 4 14.64 4 16 C6.64 16 9.28 16 12 16 C12.33 16.66 12.66 17.32 13 18 C12.67 18.99 12.34 19.98 12 21 C8.04 21 4.08 21 0 21 C0 14.07 0 7.14 0 0 Z " fill="#B4B4B4" transform="translate(304,295)"/>
<path d="M0 0 C1.32 0 2.64 0 4 0 C4 2.64 4 5.28 4 8 C6.31 8 8.62 8 11 8 C11 5.36 11 2.72 11 0 C12.32 0 13.64 0 15 0 C15 6.93 15 13.86 15 21 C13.68 21 12.36 21 11 21 C11 17.7 11 14.4 11 11 C8.69 11 6.38 11 4 11 C4 14.3 4 17.6 4 21 C2.68 21 1.36 21 0 21 C0 14.07 0 7.14 0 0 Z " fill="#D2D2D2" transform="translate(204,295)"/>
<path d="M0 0 C3.96 0 7.92 0 12 0 C12 1.32 12 2.64 12 4 C10.68 4 9.36 4 8 4 C8 7.96 8 11.92 8 16 C9.32 16.33 10.64 16.66 12 17 C11.67 18.32 11.34 19.64 11 21 C7.7 21 4.4 21 1 21 C0.67 19.68 0.34 18.36 0 17 C1.32 16.67 2.64 16.34 4 16 C4 12.04 4 8.08 4 4 C2.68 4 1.36 4 0 4 C0 2.68 0 1.36 0 0 Z " fill="#C0C0C0" transform="translate(222,295)"/>
<path d="M0 0 C3.63 0 7.26 0 11 0 C11 1.32 11 2.64 11 4 C9.68 4 8.36 4 7 4 C7 7.96 7 11.92 7 16 C8.32 16 9.64 16 11 16 C10.67 17.65 10.34 19.3 10 21 C6.7 21 3.4 21 0 21 C-0.33 19.68 -0.66 18.36 -1 17 C0.32 16.67 1.64 16.34 3 16 C3 12.04 3 8.08 3 4 C1.68 4 0.36 4 -1 4 C-0.67 2.68 -0.34 1.36 0 0 Z " fill="#CCCCCC" transform="translate(174,295)"/>
<path d="M0 0 C3.63 0 7.26 0 11 0 C11.33 1.32 11.66 2.64 12 4 C10.68 4 9.36 4 8 4 C8 7.96 8 11.92 8 16 C9.32 16.33 10.64 16.66 12 17 C11.67 18.32 11.34 19.64 11 21 C7.7 21 4.4 21 1 21 C0.67 19.68 0.34 18.36 0 17 C1.32 16.67 2.64 16.34 4 16 C4 12.04 4 8.08 4 4 C2.68 4 1.36 4 0 4 C0 2.68 0 1.36 0 0 Z " fill="#B8B8B8" transform="translate(140,295)"/>
<path d="M0 0 C3.96 0 7.92 0 12 0 C12.33 1.32 12.66 2.64 13 4 C10.03 4 7.06 4 4 4 C4 5.32 4 6.64 4 8 C6.64 8 9.28 8 12 8 C12 9.32 12 10.64 12 12 C9.36 12 6.72 12 4 12 C4 14.97 4 17.94 4 21 C2.68 20.67 1.36 20.34 0 20 C0 13.4 0 6.8 0 0 Z " fill="#D1D1D1" transform="translate(126,295)"/>
<path d="M0 0 C1.65 0 3.3 0 5 0 C5.23 0.65 5.46 1.3 5.7 1.98 C7.8 7.6 10 11.55 14 16 C14 16.66 14 17.32 14 18 C14.66 18 15.32 18 16 18 C16 18.66 16 19.32 16 20 C16.62 20.29 17.24 20.58 17.88 20.88 C20 22 20 22 22 24 C21.01 24.33 20.02 24.66 19 25 C17.03 23.93 17.03 23.93 14.94 22.31 C14.25 21.79 13.55 21.27 12.84 20.74 C10.93 18.94 10.01 17.4 9 15 C8.34 15 7.68 15 7 15 C5.53 12.99 5.53 12.99 3.94 10.31 C3.41 9.44 2.88 8.57 2.34 7.68 C1.03 5.07 0.42 2.87 0 0 Z " fill="#E0E0E0" transform="translate(166,124)"/>
<path d="M0 0 C4 4.68 4 4.68 4 7 C0.75 7.28 -0.73 7.17 -3.56 5.44 C-5.85 3.77 -5.85 3.77 -8.19 4.19 C-10.2 4.96 -10.2 4.96 -12 7 C-12.33 6.34 -12.66 5.68 -13 5 C-14.45 6.22 -14.45 6.22 -14.06 9.88 C-14.04 11.25 -14.02 12.63 -14 14 C-14 14.99 -14 15.98 -14 17 C-16.58 14.42 -16.33 13.22 -16.38 9.62 C-16.29 4.41 -16.29 4.41 -14.19 1.38 C-9.57 -1.53 -5.14 -1.55 0 0 Z " fill="#AAAAAA" transform="translate(271,296)"/>
<path d="M0 0 C6.63 0.86 13.57 4.15 19 8 C19 8.66 19 9.32 19 10 C19.58 10.27 20.15 10.54 20.75 10.81 C26.63 13.91 26.63 13.91 27.75 17.19 C27.87 18.08 27.87 18.08 28 19 C24.65 18.43 23.18 17.46 20.94 14.94 C19.53 13.28 19.53 13.28 18 12 C17.01 12 16.02 12 15 12 C14.67 11.34 14.34 10.68 14 10 C13.34 10 12.68 10 12 10 C11.67 9.34 11.34 8.68 11 8 C8.66 6.48 6.35 5.16 3.81 4 C2 3 2 3 0 0 Z " fill="#DCD9DA" transform="translate(287,161)"/>
<path d="M0 0 C1.32 0 2.64 0 4 0 C4 6.93 4 13.86 4 21 C0 20 0 20 -2 17 C-2.12 14.31 -2.12 14.31 -2 12 C-1.34 12 -0.68 12 0 12 C0 8.04 0 4.08 0 0 Z " fill="#E0E0E0" transform="translate(248,295)"/>
<path d="M0 0 C0.33 0 0.66 0 1 0 C0.91 1.33 0.91 1.33 0.81 2.69 C1.03 6.46 1.55 8.14 4 11 C7.1 11.89 7.1 11.89 10 12 C9.67 13.32 9.34 14.64 9 16 C3.38 16.25 3.38 16.25 0 14 C-2.73 10.27 -2.29 6.43 -2 2 C-1.34 1.34 -0.68 0.68 0 0 Z " fill="#D3D3D3" transform="translate(258,300)"/>
<path d="M0 0 C2.94 0.38 2.94 0.38 6 1 C6.33 1.66 6.66 2.32 7 3 C7.66 3.33 8.32 3.66 9 4 C11.01 6.94 12 8.39 12 12 C9.62 11.75 9.62 11.75 7 11 C5.69 8.94 5.69 8.94 5 7 C4.34 7 3.68 7 3 7 C2.67 6.34 2.34 5.68 2 5 C1.01 5.5 1.01 5.5 0 6 C0 4.02 0 2.04 0 0 Z " fill="#BABABA" transform="translate(364,304)"/>
<path d="M0 0 C1.98 0.99 1.98 0.99 4 2 C4 8.27 4 14.54 4 21 C2.68 21 1.36 21 0 21 C0 14.07 0 7.14 0 0 Z " fill="#D5D5D5" transform="translate(361,295)"/>
<path d="M0 0 C3.63 0 7.26 0 11 0 C11 0.66 11 1.32 11 2 C8.36 2 5.72 2 3 2 C3 3.98 3 5.96 3 8 C5.64 8 8.28 8 11 8 C11 8.66 11 9.32 11 10 C8.36 10 5.72 10 3 10 C2.67 10.66 2.34 11.32 2 12 C0 7.88 -0.18 4.55 0 0 Z " fill="#FCFCFC" transform="translate(304,296)"/>
<path d="M0 0 C2.64 0.33 5.28 0.66 8 1 C8.66 2.65 9.32 4.3 10 6 C8.14 5.72 8.14 5.72 6.25 5.44 C3.24 5.05 0.9 4.91 -2 6 C-2 3 -2 3 0 0 Z " fill="#CCCCCC" transform="translate(192,295)"/>
<path d="M0 0 C6.43 -0.36 6.43 -0.36 8.88 1.19 C10.26 3.42 10.65 5.41 11 8 C8.56 7.62 8.56 7.62 6 7 C5.67 6.34 5.34 5.68 5 5 C3.02 3.95 1.03 2.95 -1 2 C-0.67 1.34 -0.34 0.68 0 0 Z " fill="#D5D5D5" transform="translate(326,296)"/>
<path d="M0 0 C-0.64 0.43 -1.28 0.87 -1.94 1.31 C-4.27 2.91 -4.27 2.91 -5 6 C-7.06 7.69 -7.06 7.69 -9 9 C-9.33 8.34 -9.66 7.68 -10 7 C-10.14 7.58 -10.29 8.15 -10.44 8.75 C-10.96 10.83 -11.48 12.92 -12 15 C-13.45 12.1 -13.37 10.23 -13 7 C-9.69 1.47 -6.33 -0.17 0 0 Z " fill="#BBBBBB" transform="translate(330,295)"/>
<path d="M0 0 C0.33 0 0.66 0 1 0 C1 3.63 1 7.26 1 11 C1.99 11.33 2.98 11.66 4 12 C2 14 2 14 0.05 14.2 C-1.96 14.13 -3.98 14.07 -6 14 C-6 13.01 -6 12.02 -6 11 C-4.35 11 -2.7 11 -1 11 C-1.01 10.29 -1.02 9.58 -1.04 8.85 C-1.05 7.47 -1.05 7.47 -1.06 6.06 C-1.07 5.15 -1.09 4.23 -1.1 3.29 C-1 1 -1 1 0 0 Z " fill="#F3F3F3" transform="translate(146,301)"/>
<path d="M0 0 C3.09 0.43 6.06 0.93 9 2 C10.56 4.62 10.56 4.62 11 7 C6.69 7.37 4.58 6.32 1 4 C0.34 4 -0.32 4 -1 4 C-0.67 2.68 -0.34 1.36 0 0 Z " fill="#D5D5D5" transform="translate(264,296)"/>
<path d="M0 0 C5.66 1.25 8.87 2.87 13 7 C13.88 9.31 13.88 9.31 14 11 C10.65 10.43 9.18 9.46 6.94 6.94 C5.53 5.28 5.53 5.28 4 4 C3.01 4 2.02 4 1 4 C0.67 2.68 0.34 1.36 0 0 Z " fill="#B1A6A6" transform="translate(301,169)"/>
<path d="M0 0 C-3.74 2.49 -6.07 3.14 -10.45 2.88 C-11.3 2.83 -12.14 2.78 -13.02 2.73 C-13.9 2.68 -14.78 2.62 -15.69 2.56 C-16.58 2.51 -17.47 2.46 -18.39 2.4 C-20.6 2.27 -22.8 2.14 -25 2 C-25 1.67 -25 1.34 -25 1 C-16.65 0.38 -8.38 -0.18 0 0 Z " fill="#B6B6B5" transform="translate(260,235)"/>
<path d="M0 0 C0.66 0.33 1.32 0.66 2 1 C1.31 3.38 1.31 3.38 0 6 C-2.62 7.31 -2.62 7.31 -5 8 C-5 8.66 -5 9.32 -5 10 C-6.32 9.67 -7.64 9.34 -9 9 C-7.38 7.29 -5.71 5.63 -4 4 C-3.34 4 -2.68 4 -2 4 C-2 3.34 -2 2.68 -2 2 C-1.34 2 -0.68 2 0 2 C0 1.34 0 0.68 0 0 Z " fill="#D6D6D6" transform="translate(276,223)"/>
<path d="M0 0 C0.33 1.32 0.66 2.64 1 4 C-2.3 6.97 -5.6 9.94 -9 13 C-9.66 12.67 -10.32 12.34 -11 12 C-10.54 11.55 -10.08 11.11 -9.61 10.64 C-6.16 7.25 -2.93 3.86 0 0 Z " fill="#B3B3B3" transform="translate(210,222)"/>
<path d="M0 0 C0.33 0 0.66 0 1 0 C1 2.31 1 4.62 1 7 C0.01 7.33 -0.98 7.66 -2 8 C-2 8.66 -2 9.32 -2 10 C0.97 10 3.94 10 7 10 C7 10.33 7 10.66 7 11 C3.7 11 0.4 11 -3 11 C-3.33 9.68 -3.66 8.36 -4 7 C-2.68 6.67 -1.36 6.34 0 6 C0 4.02 0 2.04 0 0 Z " fill="#848484" transform="translate(177,305)"/>
<path d="M0 0 C0.33 1.32 0.66 2.64 1 4 C2.32 4.33 3.64 4.66 5 5 C4.67 6.32 4.34 7.64 4 9 C0.7 9 -2.6 9 -6 9 C-6 8.67 -6 8.34 -6 8 C-4.87 7.86 -3.73 7.71 -2.56 7.56 C0.81 7.39 0.81 7.39 2 6 C1.34 5.67 0.68 5.34 0 5 C0 3.35 0 1.7 0 0 Z " fill="#818181" transform="translate(147,307)"/>
<path d="M0 0 C4.08 0.74 8.02 1.83 12 3 C10.5 4.19 10.5 4.19 8 5 C5.21 4.27 2.62 3.18 0 2 C0 1.34 0 0.68 0 0 Z " fill="#C4C4C4" transform="translate(186,148)"/>
<path d="M0 0 C0.99 0.33 1.98 0.66 3 1 C2.5 1.33 2.01 1.66 1.5 2 C-0.83 5.11 -0.2 8.24 0 12 C0 12.99 0 13.98 0 15 C-2 13 -2 13 -2.27 10.47 C-2.26 9.49 -2.26 8.51 -2.25 7.5 C-2.26 6.52 -2.26 5.54 -2.27 4.53 C-2 2 -2 2 0 0 Z " fill="#B8B8B8" transform="translate(257,298)"/>
<path d="M0 0 C3.81 0.67 7.35 1.73 11 3 C9.31 4.62 9.31 4.62 7 6 C4.25 5.19 4.25 5.19 2 4 C2 3.34 2 2.68 2 2 C1.34 1.34 0.68 0.68 0 0 Z " fill="#E2DFDF" transform="translate(287,161)"/>
<path d="M0 0 C1.46 2.65 2 3.89 2 7 C0.35 7.33 -1.3 7.66 -3 8 C-3 6.33 -3 4.67 -3 3 C-2.01 3 -1.02 3 0 3 C0 2.01 0 1.02 0 0 Z " fill="#8E8D8D" transform="translate(317,174)"/>
<path d="M0 0 C2.38 0.69 2.38 0.69 5 2 C6.31 4.62 6.31 4.62 7 7 C5.19 6.88 5.19 6.88 3 6 C1.25 2.94 1.25 2.94 0 0 Z " fill="#DEDDDD" transform="translate(308,173)"/>
<path d="M0 0 C0 0.99 0 1.98 0 3 C0.99 3.66 1.98 4.32 3 5 C0.36 5.66 -2.28 6.32 -5 7 C-5 6.01 -5 5.02 -5 4 C-2.5 1.81 -2.5 1.81 0 0 Z " fill="#949494" transform="translate(186,238)"/>
<path d="M0 0 C-3.4 2.09 -6.05 2.18 -10 2 C-10 1.34 -10 0.68 -10 0 C-6.3 -0.95 -3.7 -0.95 0 0 Z " fill="#9C9A9C" transform="translate(270,264)"/>
<path d="M0 0 C0.99 0.33 1.98 0.66 3 1 C3 2.98 3 4.96 3 7 C2.01 6.67 1.02 6.34 0 6 C0 4.02 0 2.04 0 0 Z " fill="#F1F1F1" transform="translate(362,309)"/>
<path d="M0 0 C0.66 0.33 1.32 0.66 2 1 C1.36 1.27 0.72 1.54 0.06 1.81 C-2.33 2.89 -2.33 2.89 -3 6 C-4.65 5.67 -6.3 5.34 -8 5 C-7.42 4.73 -6.85 4.46 -6.25 4.19 C-3.97 2.98 -2.03 1.59 0 0 Z " fill="#AEAEAE" transform="translate(269,229)"/>
</svg>
